<?php

/**
 * @file
 * Logo to support theming in the Drupal8 W3css theme.
 */

xml version = "1.0" standalone = "no"?>
<!DOCTYPE svg PUBLIC "-//W3C//DTD SVG 20010904//EN"
 "http://www.w3.org/TR/2001/REC-SVG-20010904/DTD/svg10.dtd">
<svg version="1.0" xmlns="http://www.w3.org/2000/svg"
 width="321.000000pt" height="267.000000pt" viewBox="0 0 321.000000 267.000000"
 preserveAspectRatio="xMidYMid meet">
<metadata>
Created by potrace 1.10, written by Peter Selinger 2001-2011
</metadata>
<g transform="translate(0.000000,267.000000) scale(0.100000,-0.100000)"
fill="#000000" stroke="none">
<path d="M817 2564 c-3 -4 -2 -14 2 -23 8 -15 25 -126 40 -266 11 -107 43 -55
40 66 -3 82 9 107 27 58 7 -18 13 -47 13 -64 1 -16 10 -45 21 -63 28 -45 26
-62 -7 -62 -44 -1 -73 -32 -73 -77 0 -47 32 -83 73 -83 31 0 34 -10 9 -33 -17
-15 -20 -15 -51 14 -18 16 -36 27 -40 24 -3 -4 -6 -81 -7 -171 l0 -165 24 6
c13 3 46 25 73 48 64 54 74 90 59 200 -18 130 -22 203 -19 332 1 39 -3 93 -10
120 -11 44 -19 55 -76 98 -62 45 -84 54 -98 41z"/>
<path d="M2300 2540 c-19 -16 -39 -30 -43 -30 -13 0 -43 -33 -51 -55 -22 -60
-27 -235 -7 -235 14 0 49 100 56 158 4 34 11 62 15 62 5 0 11 -25 14 -55 3
-30 9 -80 12 -110 6 -58 20 -81 28 -43 2 13 13 86 24 163 10 77 22 148 26 158
13 29 -34 21 -74 -13z"/>
<path d="M340 2485 c-54 -54 -54 -56 -58 -124 -2 -40 1 -85 8 -107 13 -38 13
-38 22 -14 6 14 13 57 16 95 5 53 11 70 22 70 10 0 16 -12 17 -35 4 -56 24
-140 33 -140 5 0 10 57 13 128 3 70 8 139 12 155 12 45 -24 34 -85 -28z"/>
<path d="M2766 2508 c5 -18 10 -82 10 -143 2 -145 1 -140 18 -126 7 6 19 45
26 87 10 64 14 74 25 63 7 -8 16 -45 20 -84 13 -139 40 -110 40 42 l0 82 -55
56 c-64 65 -98 74 -84 23z"/>
<path d="M1054 2223 c4 -27 9 -68 12 -93 3 -25 8 -52 10 -60 9 -27 24 11 24
61 0 42 -33 139 -47 139 -3 0 -3 -21 1 -47z"/>
<path d="M2112 2228 c-21 -45 -29 -118 -16 -152 10 -26 24 -8 24 30 0 19 5 55
11 78 6 24 9 54 7 67 -3 21 -7 18 -26 -23z"/>
<path d="M1762 2228 c-7 -7 -12 -31 -12 -54 0 -36 -3 -43 -25 -48 -14 -4 -25
-11 -25 -16 0 -15 53 -25 58 -12 2 7 11 12 20 12 15 -1 15 -2 0 -14 -10 -7
-18 -18 -18 -25 0 -6 -6 -14 -13 -17 -8 -3 -24 -19 -37 -36 l-22 -30 21 -29
c12 -15 21 -35 21 -42 0 -8 7 -20 15 -27 21 -17 19 -35 -7 -52 -17 -11 -20
-20 -14 -42 8 -32 29 -43 59 -28 12 6 32 14 45 17 33 9 30 45 -4 45 -20 0 -25
4 -20 16 3 9 6 18 6 20 0 2 6 4 13 4 8 0 22 9 32 20 10 11 24 20 31 20 21 0
38 39 23 56 -20 24 -46 16 -68 -21 -16 -28 -27 -35 -51 -35 -16 0 -30 3 -30 6
0 4 20 32 45 62 25 30 45 65 45 78 0 12 6 27 13 31 18 11 47 59 47 78 0 29
-48 13 -61 -21 -15 -42 -37 -28 -49 31 -12 59 -20 71 -38 53z"/>
<path d="M1390 2176 c-8 -38 -16 -56 -27 -56 -8 0 -17 8 -20 18 -6 26 -42 47
-56 33 -12 -12 15 -69 40 -84 7 -4 13 -19 13 -33 0 -16 17 -45 45 -77 25 -29
45 -55 45 -59 0 -5 -13 -8 -28 -8 -29 0 -54 20 -65 53 -11 30 -67 15 -67 -19
0 -7 29 -32 65 -56 36 -24 65 -46 65 -50 0 -5 -13 -8 -30 -8 -45 0 -40 -32 8
-53 21 -9 45 -17 53 -17 39 0 54 62 19 80 -24 13 -26 38 -5 46 8 4 15 16 15
29 0 13 6 25 14 28 29 11 25 48 -10 86 -19 21 -34 42 -34 46 0 4 -8 14 -17 21
-16 12 -16 13 -1 14 9 0 18 -5 20 -12 5 -13 58 -3 58 11 0 5 -11 12 -24 15
-21 5 -25 13 -28 53 -2 35 -7 49 -20 51 -13 2 -19 -9 -28 -52z"/>
<path d="M2191 2173 c-6 -21 -11 -56 -11 -78 1 -22 -4 -76 -10 -120 -8 -56 -8
-91 -1 -116 12 -41 101 -128 134 -132 22 -2 22 0 22 160 0 89 -3 164 -6 168
-4 3 -19 -5 -34 -19 -32 -30 -47 -32 -65 -11 -16 19 -5 33 22 29 62 -11 98 98
47 137 -13 10 -38 19 -55 19 -27 0 -32 -5 -43 -37z"/>
<path d="M333 2160 c-12 -5 -26 -17 -31 -27 -12 -23 -7 -166 9 -256 11 -58 18
-74 52 -108 22 -21 44 -39 51 -39 6 -1 24 -11 40 -25 24 -19 27 -26 17 -38
-10 -12 -8 -18 11 -31 25 -18 48 -21 48 -6 0 25 30 7 41 -25 16 -42 41 -49
145 -40 83 8 104 21 104 66 0 34 -22 39 -52 12 -10 -9 -41 -18 -72 -21 -46 -4
-65 1 -125 29 -44 21 -70 38 -67 46 3 7 -3 41 -13 75 -11 35 -25 103 -31 151
-7 48 -18 94 -26 102 -8 7 -14 32 -14 55 0 30 -6 47 -25 65 -26 27 -30 28 -62
15z m77 -145 c0 -18 -23 -55 -34 -55 -11 0 -46 40 -46 52 0 4 80 7 80 3z"/>
<path d="M2791 2144 c-14 -18 -21 -41 -21 -70 0 -23 -5 -44 -11 -46 -11 -4
-38 -115 -39 -163 0 -16 -9 -58 -20 -92 -11 -35 -17 -69 -15 -75 3 -8 -22 -26
-67 -46 -61 -28 -82 -33 -125 -30 -30 3 -61 12 -71 21 -29 26 -52 22 -52 -10
0 -47 14 -57 92 -64 112 -11 142 -4 157 37 11 31 41 48 41 24 0 -15 23 -12 49
6 16 12 20 19 12 27 -18 18 -14 24 49 64 32 22 68 50 78 64 24 31 41 119 46
242 5 94 4 97 -21 117 -35 27 -57 25 -82 -6z m69 -131 c0 -13 -35 -53 -46 -53
-12 0 -34 37 -34 55 0 2 18 3 40 2 22 -1 40 -3 40 -4z"/>
<path d="M237 2048 c8 -46 13 -48 13 -5 0 21 -4 37 -10 37 -5 0 -7 -14 -3 -32z"/>
<path d="M2941 2048 c0 -28 2 -30 9 -13 12 28 12 45 0 45 -5 0 -10 -15 -9 -32z"/>
<path d="M1227 1933 c-3 -5 3 -17 14 -27 27 -23 32 -17 10 13 -10 13 -21 19
-24 14z"/>
<path d="M1945 1929 c-10 -15 3 -25 16 -12 7 7 7 13 1 17 -6 3 -14 1 -17 -5z"/>
<path d="M1120 1716 c-11 -21 -10 -30 9 -69 20 -41 20 -46 5 -75 -8 -18 -13
-36 -9 -42 11 -19 81 -11 100 11 18 19 18 21 2 47 -10 15 -31 55 -48 90 -17
34 -34 62 -38 62 -4 0 -13 -11 -21 -24z"/>
<path d="M2015 1683 c-15 -32 -38 -72 -51 -89 l-23 -31 23 -22 c14 -13 35 -21
59 -21 34 0 37 2 37 28 0 15 -5 33 -11 39 -9 9 -6 24 11 58 18 38 20 51 11 71
-6 13 -15 24 -20 24 -5 0 -22 -26 -36 -57z"/>
<path d="M1338 1698 c-21 -12 -38 -26 -38 -31 0 -4 -7 -15 -15 -23 -8 -9 -15
-22 -15 -31 0 -23 55 13 98 65 39 47 28 54 -30 20z"/>
<path d="M1826 1674 c21 -25 50 -52 66 -60 26 -13 28 -13 28 3 0 25 -84 103
-110 103 -19 0 -18 -4 16 -46z"/>
<path d="M870 1646 c0 -9 7 -16 16 -16 17 0 14 22 -4 28 -7 2 -12 -3 -12 -12z"/>
<path d="M2297 1653 c-4 -3 -7 -15 -7 -27 0 -20 0 -20 15 0 8 10 15 22 15 27
0 9 -14 9 -23 0z"/>
<path d="M903 1506 l2 -99 -36 -19 c-27 -14 -60 -19 -125 -20 -49 -1 -98 0
-109 3 -17 3 -20 -1 -18 -29 0 -18 9 -42 18 -52 11 -12 15 -28 12 -41 -3 -12
-2 -30 3 -40 9 -16 13 -15 41 12 36 34 97 54 134 45 30 -8 43 -32 29 -54 -12
-18 -141 -54 -170 -47 -36 8 -44 -13 -34 -90 5 -39 9 -73 10 -77 0 -13 27 -9
65 9 40 19 44 30 13 35 -28 4 -36 28 -9 28 31 0 35 19 6 26 -29 7 -28 27 1 33
10 2 23 9 27 17 9 16 53 19 62 4 3 -5 3 -16 -2 -22 -4 -7 -6 -21 -5 -31 2 -11
-6 -21 -22 -27 -28 -10 -35 -30 -11 -30 8 0 15 -4 15 -9 0 -5 14 -14 31 -20
38 -13 38 -51 -1 -62 -75 -21 -142 -31 -174 -25 -38 7 -42 3 -48 -69 -3 -30
-5 -31 -50 -18 -12 4 -19 -3 -23 -20 -6 -22 1 -33 39 -71 25 -24 46 -49 46
-54 0 -20 -52 -24 -73 -5 -41 35 -67 68 -79 101 -13 34 -29 40 -47 18 -18 -22
-23 -135 -9 -196 l13 -55 80 -8 c90 -10 101 -16 110 -58 7 -33 13 -35 39 -16
18 13 18 15 -2 61 -16 34 -19 53 -12 71 8 21 11 72 10 161 0 18 8 42 18 54 15
18 24 21 55 15 29 -6 39 -13 44 -34 13 -56 62 -56 115 -1 44 47 48 65 16 74
-34 9 -37 8 -31 -14 6 -23 -15 -28 -35 -8 -10 10 -17 10 -32 0 -25 -15 -30
-15 -30 2 0 13 77 56 99 56 5 0 13 9 16 20 10 31 35 25 35 -8 0 -36 8 -44 31
-32 26 14 32 -3 18 -48 -15 -52 -69 -109 -116 -125 -35 -11 -38 -15 -39 -52
-1 -54 -11 -83 -35 -95 -12 -7 -19 -21 -19 -40 0 -46 34 -40 62 10 16 28 38
49 70 65 47 24 47 24 72 4 34 -27 39 -24 34 18 -3 22 3 57 14 85 10 27 18 63
18 81 0 41 -18 107 -30 107 -5 0 -18 17 -30 38 -12 20 -36 44 -53 52 -36 17
-61 58 -46 76 19 23 41 116 30 127 -6 6 -11 17 -11 24 0 18 27 16 34 -2 3 -8
10 -15 16 -15 15 0 12 26 -5 40 -21 17 -19 82 4 127 16 33 18 48 10 107 -5 38
-15 76 -22 85 -8 9 -17 23 -20 31 -4 8 -5 -29 -4 -84z"/>
<path d="M2280 1588 c0 -6 -7 -19 -15 -28 -9 -9 -19 -48 -24 -86 -8 -59 -6
-74 10 -107 23 -46 25 -115 4 -123 -16 -7 -21 -44 -5 -44 5 0 14 9 21 21 8 16
14 18 22 10 9 -9 8 -17 -1 -32 -14 -21 -6 -62 23 -121 11 -22 10 -30 -6 -57
-10 -17 -29 -33 -42 -36 -13 -4 -32 -21 -42 -38 -10 -18 -24 -35 -31 -40 -16
-9 -34 -70 -34 -112 0 -17 8 -53 18 -80 11 -29 17 -66 14 -88 -5 -43 -1 -44
37 -17 l27 21 43 -24 c25 -15 54 -42 68 -66 28 -48 56 -52 61 -9 2 18 -3 30
-16 37 -25 13 -44 65 -36 97 8 30 -11 54 -42 54 -29 0 -80 52 -106 108 -23 51
-18 78 11 63 23 -13 31 -5 31 31 0 32 25 39 34 10 4 -11 25 -24 53 -33 45 -14
74 -41 60 -55 -4 -4 -13 -2 -19 4 -15 15 -45 15 -50 0 -2 -6 -10 -8 -17 -4 -7
5 -10 14 -7 22 6 15 2 17 -31 8 -33 -9 -28 -27 18 -74 50 -51 86 -52 107 -5 9
21 25 34 48 41 29 9 36 8 53 -10 19 -20 23 -48 22 -151 0 -16 4 -45 9 -63 7
-27 5 -43 -13 -79 -21 -44 -22 -45 -3 -59 28 -20 34 -18 41 15 10 49 27 57
125 62 64 3 67 5 80 74 11 60 8 141 -6 180 -9 24 -41 18 -48 -8 -3 -13 -24
-45 -47 -70 -33 -39 -47 -47 -75 -47 -46 0 -43 16 12 69 63 61 56 99 -16 80
-10 -3 -16 5 -18 26 -6 72 -10 77 -50 71 -20 -2 -73 3 -117 12 -73 15 -80 19
-80 41 0 17 11 29 45 47 49 26 53 36 19 44 -31 8 -35 27 -7 36 23 7 23 7 -5
17 -15 5 -26 14 -24 21 6 17 47 19 65 3 9 -8 25 -17 35 -20 23 -8 22 -23 -3
-30 -26 -7 -26 -27 -1 -27 30 0 35 -19 6 -26 -33 -8 -32 -20 5 -39 48 -25 58
-20 65 33 3 26 8 61 11 79 6 38 -6 47 -61 50 -58 2 -137 27 -149 46 -17 26 5
52 47 55 38 3 87 -17 125 -51 20 -18 24 -19 32 -7 5 8 7 25 3 38 -3 13 1 30
10 40 21 24 31 78 17 87 -7 4 -22 2 -35 -5 -32 -17 -195 2 -230 27 -24 18 -24
20 -18 111 3 50 3 92 -1 92 -3 0 -6 -5 -6 -12z"/>
<path d="M297 1532 c-21 -22 -37 -48 -37 -61 0 -30 -27 -87 -57 -119 -55 -60
-86 -148 -64 -181 8 -12 15 -11 47 4 30 14 46 16 79 8 57 -13 81 5 76 55 -1
15 -107 17 -116 2 -9 -15 -45 -12 -45 3 0 12 63 101 100 142 10 11 21 37 25
57 4 20 13 45 20 55 12 16 14 14 29 -21 9 -21 16 -54 16 -72 0 -19 4 -34 10
-34 5 0 22 -13 37 -30 51 -58 73 -22 29 48 -12 20 -26 48 -31 60 -7 25 -61
108 -74 116 -4 3 -24 -12 -44 -32z"/>
<path d="M2126 1554 c-27 -26 -18 -85 16 -103 15 -9 30 -12 34 -9 7 7 -15 107
-26 121 -4 5 -15 1 -24 -9z"/>
<path d="M2835 1550 c-22 -24 -34 -46 -71 -122 -15 -32 -30 -58 -34 -58 -4 0
-10 -12 -13 -26 -7 -39 19 -42 52 -5 15 17 33 31 39 31 7 0 12 14 12 30 0 42
23 110 36 110 7 0 18 -24 24 -52 7 -29 22 -64 35 -78 44 -50 95 -123 95 -138
0 -10 -6 -12 -22 -7 -13 4 -49 10 -80 14 -73 9 -85 -9 -41 -60 11 -13 20 -14
52 -6 31 9 48 7 82 -6 52 -21 62 -11 55 51 -4 31 -20 62 -62 117 -39 51 -57
86 -61 114 -4 28 -16 50 -42 75 -37 36 -37 37 -56 16z"/>
<path d="M1022 1503 c-6 -31 -9 -59 -6 -62 3 -3 17 1 32 10 30 16 42 70 21 95
-22 26 -35 14 -47 -43z"/>
<path d="M570 1531 c0 -22 34 -121 42 -121 19 0 7 73 -17 102 -14 16 -25 25
-25 19z"/>
<path d="M2593 1510 c-23 -28 -34 -108 -14 -95 10 5 45 115 39 120 -2 1 -13
-10 -25 -25z"/>
<path d="M443 1254 c-10 -25 10 -47 43 -48 35 -1 44 14 18 29 -11 5 -23 16
-27 23 -11 17 -26 15 -34 -4z"/>
<path d="M2698 1245 c-36 -31 -35 -42 5 -42 35 0 47 11 47 45 0 28 -18 28 -52
-3z"/>
<path d="M523 1141 c-26 -22 -29 -43 -9 -64 8 -7 16 -25 18 -38 1 -13 8 -22
13 -19 6 3 9 12 8 20 -2 8 -5 31 -9 51 -4 22 -2 39 5 43 12 8 15 26 4 26 -5
-1 -18 -9 -30 -19z"/>
<path d="M2630 1151 c0 -6 5 -13 11 -17 11 -6 8 -47 -6 -93 -6 -18 -5 -23 6
-19 8 3 16 13 18 23 2 10 9 25 17 33 21 21 17 48 -11 66 -28 18 -35 20 -35 7z"/>
<path d="M102 1125 c-18 -19 -24 -39 -29 -102 -5 -75 -4 -80 22 -111 23 -27
33 -32 71 -32 24 0 53 -5 63 -12 16 -10 25 -7 55 18 28 23 35 35 33 59 -2 24
-6 29 -22 27 -11 -2 -27 -10 -35 -17 -20 -16 -128 -5 -141 16 -12 19 -11 61 2
114 15 58 9 69 -19 40z"/>
<path d="M3064 1120 c20 -121 20 -136 -5 -154 -30 -21 -112 -21 -144 0 -54 35
-62 -26 -10 -76 31 -30 38 -33 55 -22 11 6 40 12 64 12 38 0 48 5 71 32 26 31
27 36 22 112 -5 69 -9 82 -32 105 l-27 26 6 -35z"/>
<path d="M300 1061 c0 -53 15 -69 26 -27 8 33 2 69 -13 74 -9 2 -13 -11 -13
-47z"/>
<path d="M2864 1095 c-8 -20 5 -85 16 -85 6 0 10 23 10 50 0 48 -14 67 -26 35z"/>
<path d="M468 933 c-2 -10 -2 -37 0 -61 6 -62 26 -47 30 21 2 44 0 57 -11 57
-8 0 -17 -8 -19 -17z"/>
<path d="M2692 898 c4 -61 24 -76 30 -21 6 48 0 73 -19 73 -11 0 -13 -12 -11
-52z"/>
<path d="M2963 832 c-9 -6 -10 -23 -4 -61 5 -31 4 -71 -2 -98 -9 -43 -7 -48
14 -65 13 -10 35 -17 49 -16 21 3 25 7 22 32 -2 17 4 36 15 48 15 16 15 21 3
28 -8 6 -30 10 -47 10 -41 0 -42 12 -2 27 29 11 30 12 16 40 -20 38 -50 64
-64 55z m62 -162 c3 -5 -3 -10 -15 -10 -12 0 -18 5 -15 10 3 6 10 10 15 10 5
0 12 -4 15 -10z"/>
<path d="M189 813 c-8 -10 -20 -28 -27 -41 -12 -22 -11 -24 17 -35 17 -6 31
-14 31 -18 0 -11 -29 -19 -45 -13 -8 4 -22 1 -30 -6 -12 -10 -12 -15 1 -34 8
-13 13 -34 12 -47 -3 -20 2 -25 24 -27 43 -5 72 28 63 70 -9 37 -8 99 1 141 5
22 2 27 -14 27 -10 0 -25 -8 -33 -17z"/>
<path d="M261 778 c-11 -28 8 -52 32 -42 20 7 21 18 7 45 -14 25 -29 24 -39
-3z"/>
<path d="M2890 781 c-14 -27 -13 -38 7 -45 24 -10 43 14 32 42 -10 27 -25 28
-39 3z"/>
<path d="M940 535 c-20 -41 -25 -45 -59 -45 -35 0 -38 -2 -55 -50 -15 -41 -16
-53 -5 -66 10 -12 9 -17 -9 -30 -19 -13 -21 -21 -15 -57 6 -43 38 -102 67
-126 22 -18 31 -8 16 19 -6 12 -15 58 -20 103 -9 93 -4 104 62 138 51 26 78
24 126 -11 40 -28 62 -37 62 -24 0 9 -97 157 -116 177 -25 25 -30 22 -54 -28z"/>
<path d="M2200 567 c-9 -7 -27 -30 -40 -52 -13 -22 -36 -56 -52 -76 -49 -64
-31 -79 32 -29 52 41 95 40 152 -3 l43 -33 -4 -70 c-2 -38 -9 -87 -17 -109
-16 -48 -11 -55 19 -24 36 38 53 71 60 114 7 44 2 58 -28 69 -19 7 -19 8 -2
17 22 13 22 27 -2 80 -18 41 -22 43 -54 41 -37 -4 -45 4 -62 52 -12 34 -24 40
-45 23z"/>
<path d="M439 452 c-13 -20 -30 -53 -39 -72 -9 -19 -25 -41 -34 -49 -39 -32
-61 -111 -32 -111 26 0 46 12 46 26 0 24 38 91 55 98 9 3 41 6 72 6 47 0 59
-4 84 -29 18 -19 29 -40 29 -58 0 -36 14 -57 33 -50 22 8 31 57 14 75 -10 9
-13 27 -10 52 9 67 -59 158 -74 100 -4 -14 -14 -20 -33 -20 -43 0 -60 10 -60
35 0 39 -27 37 -51 -3z"/>
<path d="M2707 484 c-4 -4 -7 -17 -7 -30 0 -38 -83 -51 -93 -14 -3 11 -12 20
-21 20 -27 0 -51 -50 -52 -106 0 -29 -6 -60 -13 -68 -16 -20 -1 -70 22 -74 12
-3 18 7 23 38 4 23 18 55 31 71 22 26 31 29 87 29 35 0 69 -5 77 -12 23 -20
49 -65 49 -87 0 -11 9 -22 20 -26 51 -16 54 35 5 93 -20 22 -42 56 -51 74 -35
77 -61 108 -77 92z"/>
<path d="M989 343 c-37 -6 -58 -32 -52 -65 l5 -27 25 30 c29 34 59 38 68 9 3
-11 11 -20 16 -20 5 0 9 -11 9 -24 0 -32 -35 -56 -82 -56 -29 0 -41 -6 -54
-25 -9 -14 -14 -32 -10 -40 12 -33 143 -7 194 38 25 23 29 69 7 87 -8 7 -15
17 -15 22 0 5 -12 25 -26 44 -26 33 -32 35 -85 27z"/>
<path d="M2119 318 c-66 -89 -74 -121 -36 -155 55 -49 188 -70 195 -30 6 28
-38 69 -65 62 -32 -8 -83 20 -83 46 0 31 30 69 54 69 12 0 30 -13 42 -31 l22
-30 6 27 c9 36 -16 61 -70 70 -37 5 -42 3 -65 -28z"/>
<path d="M436 231 c-12 -13 -16 -31 -14 -58 l4 -38 13 30 c16 37 40 65 57 65
7 0 25 -12 39 -26 21 -21 25 -34 23 -67 l-3 -42 -53 -3 c-30 -2 -59 2 -67 8
-16 13 -65 -4 -65 -23 0 -7 7 -23 16 -35 14 -20 24 -22 102 -22 63 0 94 4 110
16 27 19 28 48 2 74 -12 12 -20 33 -20 55 0 20 -7 47 -16 60 -14 21 -24 25
-64 25 -33 0 -52 -5 -64 -19z"/>
<path d="M2626 225 c-9 -13 -16 -40 -16 -60 0 -23 -7 -41 -20 -52 -26 -23 -25
-50 3 -74 33 -28 179 -27 207 1 27 27 25 48 -5 62 -22 10 -25 18 -25 62 -1 70
-15 86 -77 86 -43 0 -53 -4 -67 -25z m110 -30 c8 -12 15 -39 17 -61 l2 -39
-48 -3 c-59 -4 -77 9 -77 55 0 70 71 102 106 48z"/>
</g>
</svg>
